<svg xmlns="http://www.w3.org/2000/svg" viewBox="0 0 57 57"><defs><style>.cls-1{fill:none;stroke:#000;stroke-linecap:round;stroke-linejoin:round;}.cls-2{isolation:isolate;}</style></defs><g id="Layer_2" data-name="Layer 2"><g id="Layer_1-2" data-name="Layer 1"><circle class="cls-1" cx="28.5" cy="28.5" r="28"/><g class="cls-2"><path d="M10.57,31.58a.5.5,0,0,1,.55-.55h1.1l2-8H13.4q-.6,0-.6-.48t.6-.54h3.08c.4,0,.59.16.59.47s-.19.54-.57.55H15.4l-.82,3.29H20.1L20.93,23H20.1c-.39,0-.59-.16-.58-.48s.19-.54.58-.54h3.08c.39,0,.59.16.59.47s-.19.54-.58.55H22.1l-2,8h.81c.41,0,.61.16.61.48s-.21.54-.62.54H17.84c-.38,0-.57-.16-.57-.47a.5.5,0,0,1,.56-.55h1.1l.92-3.69H14.33L13.4,31h.82q.6,0,.6.48c0,.36-.21.54-.61.54H11.14C10.76,32.05,10.57,31.89,10.57,31.58Z"/><path d="M24.12,27.34a2.11,2.11,0,0,1,.26-.85,3.15,3.15,0,0,1,.88-1.08,2,2,0,0,1,1.35-.52,1.53,1.53,0,0,1,1.06.39,1.3,1.3,0,0,1,.43,1v.1a12.76,12.76,0,0,1-.76,2.21,15.55,15.55,0,0,0-.76,2.13c0,.25.13.37.39.37a1,1,0,0,0,.65-.3,2.23,2.23,0,0,0,.59-.89s0-.1.07-.21.07-.18.1-.24a.38.38,0,0,1,.17-.16.66.66,0,0,1,.34-.08h0c.45,0,.67.16.66.47a2.68,2.68,0,0,1-.76,1.51,2.32,2.32,0,0,1-1.86.92,1.52,1.52,0,0,1-1.07-.39,1.31,1.31,0,0,1-.44-1v-.1a14.4,14.4,0,0,1,.76-2.19A16.56,16.56,0,0,0,27,26.3a.34.34,0,0,0-.38-.39,1.09,1.09,0,0,0-.77.44,2.15,2.15,0,0,0-.43.71,3.32,3.32,0,0,1-.25.57.46.46,0,0,1-.4.17h0C24.31,27.8,24.12,27.64,24.12,27.34Zm3.07-4.54a.78.78,0,0,1,.24-.54A.74.74,0,0,1,28,22a.67.67,0,0,1,.66.66.84.84,0,0,1-.79.8.6.6,0,0,1-.48-.21A.64.64,0,0,1,27.19,22.8Z"/><path d="M31.28,29.47a4.78,4.78,0,0,1,1.21-3.15,3.47,3.47,0,0,1,2.66-1.43,2.28,2.28,0,0,1,1.73.82L37.54,23H36.4a.54.54,0,0,1-.42-.15.52.52,0,0,1-.12-.33c0-.36.2-.54.59-.54h1.82c.38,0,.56.16.56.47a.42.42,0,0,1,0,.14.37.37,0,0,0,0,.13l-1.9,7.55a1.14,1.14,0,0,0,0,.28A.84.84,0,0,0,37,31a.83.83,0,0,0,.4.12.41.41,0,0,0,.29-.11,1.59,1.59,0,0,0,.4-.75,4.7,4.7,0,0,1,.26-.74.51.51,0,0,1,.51-.28c.39,0,.58.16.59.47a1.82,1.82,0,0,1-.12.44A7.89,7.89,0,0,1,39,31a2.38,2.38,0,0,1-.64.82,1.52,1.52,0,0,1-1,.35,1.76,1.76,0,0,1-1-.26,1.41,1.41,0,0,1-.61-.71,3.33,3.33,0,0,1-2.24,1,2,2,0,0,1-1.65-.76A2.82,2.82,0,0,1,31.28,29.47Zm1.15.07a2.59,2.59,0,0,0,.09.68,1.5,1.5,0,0,0,.37.62,1,1,0,0,0,.72.29A2.37,2.37,0,0,0,35.44,30a4,4,0,0,0,.88-2.44A2,2,0,0,0,36,26.35a1,1,0,0,0-.87-.44A2.44,2.44,0,0,0,33.32,27,3.88,3.88,0,0,0,32.43,29.54Z"/><path d="M41.3,29.29a4.55,4.55,0,0,1,4.33-4.4,2.36,2.36,0,0,1,1.52.48,1.54,1.54,0,0,1,.6,1.24,1.74,1.74,0,0,1-.08.5,3.16,3.16,0,0,1-.29.6,1.91,1.91,0,0,1-.73.66,3.85,3.85,0,0,1-1.28.43A17.19,17.19,0,0,1,43,29h-.51a3.12,3.12,0,0,0,0,.37,2,2,0,0,0,.42,1.28,1.62,1.62,0,0,0,1.36.53A8.46,8.46,0,0,0,45.89,31a2.25,2.25,0,0,0,.86-.3l.36-.29a.58.58,0,0,1,.35-.14.6.6,0,0,1,.38.19.53.53,0,0,1,.2.4.56.56,0,0,1-.07.24,1.07,1.07,0,0,1-.32.33,2.83,2.83,0,0,1-.63.35,5,5,0,0,1-1.08.26,10.73,10.73,0,0,1-1.59.1h-.23A2.66,2.66,0,0,1,42,31.31,2.91,2.91,0,0,1,41.3,29.29ZM42.77,28h.52c2.2,0,3.31-.45,3.31-1.33a.62.62,0,0,0-.28-.52,1.2,1.2,0,0,0-.72-.19,2.75,2.75,0,0,0-1.65.6A3.52,3.52,0,0,0,42.77,28Z"/></g></g></g></svg>