<svg xmlns="http://www.w3.org/2000/svg" viewBox="0 0 57 57"><defs><style>.cls-1{fill:none;stroke:#000;stroke-linecap:round;stroke-linejoin:round;}.cls-2{isolation:isolate;}</style></defs><g id="Layer_2" data-name="Layer 2"><g id="Layer_1-2" data-name="Layer 1"><circle class="cls-1" cx="28.5" cy="28.5" r="28"/><g class="cls-2"><path d="M8,31.58a.82.82,0,0,1,0-.21.52.52,0,0,1,.17-.22A.55.55,0,0,1,8.58,31h1.1l2-8H11a.9.9,0,0,1-.44-.08.41.41,0,0,1-.25-.4c0-.36.19-.54.58-.54h1.88a.63.63,0,0,1,.71.54L14.83,30l.16.85c.2-.3.35-.53.47-.69l5.18-7.51a1.2,1.2,0,0,1,1-.58h1.59c.41,0,.61.16.61.47a.82.82,0,0,1,0,.21.52.52,0,0,1-.17.22.57.57,0,0,1-.37.12H22.2l-2,8H21c.4,0,.59.16.59.48s-.2.54-.6.54H18.19c-.4,0-.61-.16-.61-.47a.56.56,0,0,1,0-.21.45.45,0,0,1,.17-.22.55.55,0,0,1,.37-.12h1.08l2-7.89-5.61,8.14a1.05,1.05,0,0,1-.85.57h0c-.32,0-.53-.23-.61-.7L12.76,24c-.06-.37-.11-.65-.16-.83l-2,7.91h.81c.4,0,.61.16.61.48s-.21.54-.61.54H8.62C8.21,32.05,8,31.89,8,31.58Z"/><path d="M24.51,31.58c0-.36.21-.55.64-.55h.7a.33.33,0,0,0,.3-.16l5.06-8.31A1.88,1.88,0,0,1,31.7,22a1.12,1.12,0,0,1,.59-.13h.5l.19,0,.15.05a.28.28,0,0,1,.1.09l.08.1,0,.11a.5.5,0,0,0,0,.12s0,.06,0,.11a.44.44,0,0,1,0,.09L34.33,31H35c.43,0,.65.16.65.48s-.2.54-.61.54H32.25c-.4,0-.6-.16-.6-.47s.21-.55.63-.55h.83l-.19-1.79H28.5a.34.34,0,0,0-.24.18c-.09.13-.3.45-.62,1l-.38.64h.57c.42,0,.64.16.64.48s-.21.54-.61.54H25.08C24.7,32.05,24.51,31.89,24.51,31.58ZM29,28.24h3.83l-.57-5.36Z"/><path d="M38.5,31.58a.5.5,0,0,1,.56-.55h1.1l2-8h-.81q-.6,0-.6-.48t.57-.54h1.89a.73.73,0,0,1,.79.55l2.69,8.26c0,.11.08.24.14.39l2-8.18h-.81q-.6,0-.6-.48t.6-.54h2.83c.41,0,.61.16.61.47s-.19.54-.58.55H49.82c0,.1-.07.24-.12.44s-.08.35-.11.44L47.7,31.55c-.1.33-.28.5-.53.5h-.43a.71.71,0,0,1-.29,0,.69.69,0,0,1-.21-.1.53.53,0,0,1-.15-.15,1,1,0,0,1-.09-.17s0-.1-.07-.18,0-.14,0-.15l-2.4-7.41c-.06-.22-.17-.55-.32-1l-2,8.18h.83c.4,0,.59.16.59.48s-.2.54-.61.54H39.1C38.7,32.05,38.5,31.89,38.5,31.58Z"/></g></g></g></svg>