<?xml version="1.0" encoding="utf-8"?>
<!-- Generator: Adobe Illustrator 25.4.0, SVG Export Plug-In . SVG Version: 6.00 Build 0)  -->
<svg version="1.0" id="Layer_1" xmlns="http://www.w3.org/2000/svg" xmlns:xlink="http://www.w3.org/1999/xlink" x="0px" y="0px"
	 width="56px" height="58.7px" viewBox="0 0 56 58.7" enable-background="new 0 0 56 58.7" xml:space="preserve">
<g>
	<g transform="translate(3.5, 0)">
		<path fill="none" stroke="#000000" stroke-linecap="round" stroke-linejoin="round" d="M51.9,38.3c-0.8,2.6-7.2,2.4-8.8,4.6
			c-1.6,2.2,0.5,8.2-1.7,9.8c-2.2,1.6-7.2-2.3-9.8-1.4c-2.5,0.8-4.3,7-7.1,7s-4.6-6.1-7.1-7c-2.6-0.8-7.7,3-9.8,1.4
			c-2.2-1.6-0.1-7.6-1.7-9.8c-1.6-2.2-8-2-8.8-4.6c-0.8-2.5,4.4-6.1,4.4-8.9s-5.2-6.4-4.4-8.9c0.8-2.6,7.2-2.4,8.8-4.6
			C7.5,13.6,5.4,7.6,7.5,6c2.2-1.6,7.2,2.3,9.8,1.4c2.5-0.8,4.3-6.9,7.1-6.9s4.6,6.1,7.1,7c2.6,0.8,7.7-3,9.8-1.4
			c2.2,1.6,0.1,7.6,1.7,9.8c1.6,2.2,8,2,8.8,4.6c0.8,2.5-4.4,6.1-4.4,8.9C47.5,32.1,52.7,35.7,51.9,38.3z"/>
		<g transform="translate(71.5, 75)">
			<g enable-background="new    ">
				<path d="M-65.1-49.1c0-0.1,0-0.1,0.1-0.2c0-0.1,0.1-0.1,0.2-0.1h0.6l1-4.1h-0.4c-0.2,0-0.3-0.1-0.3-0.2c0-0.2,0.1-0.3,0.3-0.3
					c0,0,0,0,0,0h2.7c0.5,0,0.9,0.1,1.3,0.3c0.1,0.1,0.3,0.2,0.4,0.3c0.1,0.1,0.2,0.3,0.4,0.6s0.2,0.5,0.2,0.9c0,0.5-0.2,1-0.5,1.5
					c-0.3,0.5-0.7,0.9-1.3,1.2c-0.5,0.3-1.1,0.5-1.7,0.5h-2.7C-65-48.8-65.1-48.9-65.1-49.1z M-63.7-49.3h1.5c0.8,0,1.5-0.3,2-0.8
					c0.6-0.5,0.8-1.1,0.8-1.7c0-0.2,0-0.4-0.1-0.5s-0.2-0.3-0.3-0.5c-0.1-0.2-0.3-0.3-0.6-0.4s-0.6-0.2-0.9-0.2h-1.4L-63.7-49.3z"/>
				<path d="M-57.9-51.2c0-0.1,0-0.2,0.1-0.4c0.1-0.2,0.2-0.4,0.5-0.6c0.2-0.2,0.4-0.3,0.7-0.3c0.2,0,0.4,0.1,0.5,0.2
					c0.1,0.1,0.2,0.3,0.2,0.5v0c0,0.1-0.1,0.5-0.4,1.1s-0.4,1-0.4,1.1c0,0.1,0.1,0.2,0.2,0.2c0.1,0,0.2-0.1,0.3-0.2s0.2-0.3,0.3-0.5
					c0,0,0-0.1,0-0.1c0-0.1,0-0.1,0-0.1c0,0,0-0.1,0.1-0.1c0,0,0.1,0,0.2,0h0c0.2,0,0.3,0.1,0.3,0.2c0,0.2-0.1,0.5-0.4,0.8
					c-0.3,0.3-0.6,0.5-1,0.5c-0.2,0-0.4-0.1-0.6-0.2c-0.1-0.1-0.2-0.3-0.2-0.5v0c0-0.1,0.1-0.5,0.4-1.1c0.3-0.7,0.4-1,0.4-1.1
					c0-0.1-0.1-0.2-0.2-0.2s-0.3,0.1-0.4,0.2c-0.1,0.1-0.2,0.2-0.2,0.4c0,0.1-0.1,0.2-0.1,0.3s-0.1,0.1-0.2,0.1h0
					C-57.8-51-57.9-51.1-57.9-51.2z M-56.3-53.6c0-0.1,0-0.2,0.1-0.3c0.1-0.1,0.2-0.1,0.3-0.1c0.1,0,0.2,0,0.2,0.1
					c0.1,0.1,0.1,0.1,0.1,0.2c0,0.1,0,0.2-0.1,0.3c-0.1,0.1-0.2,0.1-0.3,0.1c-0.1,0-0.2,0-0.2-0.1C-56.3-53.4-56.3-53.5-56.3-53.6z"
					/>
				<path d="M-54.2-50.1c0-0.6,0.2-1.1,0.6-1.6c0.4-0.5,0.9-0.7,1.4-0.7c0.3,0,0.6,0.1,0.9,0.4c0-0.2,0.1-0.3,0.3-0.3c0,0,0,0,0,0
					c0.1,0,0.1,0,0.2,0.1c0.1,0.1,0.1,0.1,0.1,0.2c0,0,0,0.1,0,0.1l-0.6,2.3c0,0,0,0.1,0,0.1c0,0.1,0,0.1,0.1,0.2
					c0.1,0,0.1,0.1,0.2,0.1c0.1,0,0.2-0.1,0.3-0.2c0.1-0.1,0.1-0.2,0.1-0.4c0-0.1,0.1-0.2,0.1-0.3c0,0,0.1-0.1,0.2-0.1
					c0.2,0,0.3,0.1,0.3,0.2c0,0,0,0.1-0.1,0.2c0,0.1-0.1,0.3-0.2,0.4s-0.2,0.3-0.3,0.4c-0.1,0.1-0.3,0.2-0.5,0.2
					c-0.2,0-0.3,0-0.5-0.1c-0.1-0.1-0.3-0.2-0.3-0.4c-0.4,0.3-0.8,0.5-1.2,0.5c-0.3,0-0.6-0.1-0.9-0.4
					C-54.1-49.4-54.2-49.7-54.2-50.1z M-53.6-50.1c0,0.1,0,0.2,0,0.3c0,0.1,0.1,0.2,0.2,0.3c0.1,0.1,0.2,0.2,0.4,0.2
					c0.3,0,0.6-0.2,0.9-0.6c0.3-0.4,0.5-0.8,0.5-1.3c0-0.3-0.1-0.5-0.2-0.6c-0.1-0.2-0.3-0.2-0.4-0.2c-0.3,0-0.6,0.2-0.9,0.6
					C-53.5-51-53.6-50.6-53.6-50.1z"/>
				<path d="M-49.6-47.4c0-0.1,0-0.2,0.1-0.3c0.1-0.1,0.2-0.1,0.3-0.1c0.1,0,0.2,0,0.2,0.1c0.1,0.1,0.1,0.1,0.1,0.3c0,0,0,0.1,0,0.1
					c0.1,0,0.3,0,0.4,0h0c0.5,0,0.9-0.2,1.2-0.6c0.1-0.1,0.2-0.5,0.3-1.1c-0.3,0.2-0.6,0.3-0.9,0.3c-0.4,0-0.6-0.1-0.9-0.4
					s-0.3-0.6-0.3-1c0-0.6,0.2-1.1,0.6-1.6c0.4-0.5,0.9-0.7,1.4-0.7c0.4,0,0.6,0.1,0.9,0.4c0-0.2,0.2-0.3,0.3-0.3c0,0,0,0,0,0
					c0.1,0,0.1,0,0.2,0.1c0.1,0.1,0.1,0.1,0.1,0.2l0,0.2l-0.9,3.6c-0.1,0.2-0.1,0.4-0.2,0.5c-0.1,0.3-0.4,0.5-0.7,0.7
					c-0.3,0.2-0.7,0.3-1,0.3h-0.1c-0.2,0-0.3,0-0.4,0c-0.1,0-0.2,0-0.4-0.1c-0.1,0-0.3-0.1-0.3-0.2C-49.6-47.2-49.6-47.3-49.6-47.4z
					 M-48.5-50.2c0,0.2,0.1,0.4,0.2,0.6c0.1,0.1,0.3,0.2,0.4,0.2c0.3,0,0.6-0.2,0.9-0.6c0.3-0.4,0.5-0.8,0.5-1.3
					c0-0.2-0.1-0.4-0.2-0.6c-0.1-0.2-0.3-0.2-0.5-0.2c-0.3,0-0.6,0.2-0.9,0.6C-48.3-51-48.5-50.6-48.5-50.2z"/>
				<path d="M-44.9-51.2c0,0,0-0.1,0.1-0.2c0-0.1,0.1-0.3,0.2-0.4s0.2-0.3,0.3-0.4c0.2-0.1,0.3-0.2,0.5-0.2c0.4,0,0.7,0.2,0.8,0.5
					c0.3-0.3,0.7-0.5,1.1-0.5c0.3,0,0.5,0.1,0.7,0.2c0.2,0.2,0.3,0.4,0.3,0.6c0,0.2,0,0.3-0.1,0.4c-0.1,0.1-0.2,0.1-0.3,0.1
					c-0.1,0-0.2,0-0.2-0.1c-0.1-0.1-0.1-0.1-0.1-0.2c0-0.1,0.1-0.2,0.2-0.3c-0.1-0.1-0.2-0.2-0.4-0.2c-0.3,0-0.5,0.2-0.8,0.5
					c-0.2,0.3-0.4,0.6-0.5,1c-0.1,0.4-0.2,0.7-0.3,1.1c-0.1,0.3-0.2,0.5-0.2,0.6c-0.1,0.1-0.2,0.1-0.3,0.1c-0.1,0-0.2,0-0.2-0.1
					c-0.1-0.1-0.1-0.1-0.1-0.2c0,0,0-0.1,0-0.2l0.6-2.2c0.1-0.1,0.1-0.2,0.1-0.2c0-0.1,0-0.2-0.1-0.2c-0.1,0-0.1-0.1-0.2-0.1
					c-0.2,0-0.4,0.2-0.5,0.7c0,0,0,0,0,0c0,0,0,0.1,0,0.1c0,0,0,0,0,0.1c0,0,0,0.1,0,0.1c0,0,0,0-0.1,0c0,0-0.1,0-0.1,0h0
					C-44.8-51-44.9-51.1-44.9-51.2z"/>
				<path d="M-40.6-50.1c0-0.6,0.2-1.1,0.6-1.6c0.4-0.5,0.9-0.7,1.4-0.7c0.3,0,0.6,0.1,0.9,0.4c0-0.2,0.1-0.3,0.3-0.3c0,0,0,0,0,0
					c0.1,0,0.1,0,0.2,0.1c0.1,0.1,0.1,0.1,0.1,0.2c0,0,0,0.1,0,0.1l-0.6,2.3c0,0,0,0.1,0,0.1c0,0.1,0,0.1,0.1,0.2
					c0.1,0,0.1,0.1,0.2,0.1c0.1,0,0.2-0.1,0.3-0.2c0.1-0.1,0.1-0.2,0.1-0.4c0-0.1,0.1-0.2,0.1-0.3c0,0,0.1-0.1,0.2-0.1
					c0.2,0,0.3,0.1,0.3,0.2c0,0,0,0.1-0.1,0.2c0,0.1-0.1,0.3-0.2,0.4s-0.2,0.3-0.3,0.4c-0.1,0.1-0.3,0.2-0.5,0.2
					c-0.2,0-0.3,0-0.5-0.1c-0.1-0.1-0.3-0.2-0.3-0.4c-0.4,0.3-0.8,0.5-1.2,0.5c-0.3,0-0.6-0.1-0.9-0.4
					C-40.5-49.4-40.6-49.7-40.6-50.1z M-40-50.1c0,0.1,0,0.2,0,0.3c0,0.1,0.1,0.2,0.2,0.3c0.1,0.1,0.2,0.2,0.4,0.2
					c0.3,0,0.6-0.2,0.9-0.6c0.3-0.4,0.5-0.8,0.5-1.3c0-0.3-0.1-0.5-0.2-0.6c-0.1-0.2-0.3-0.2-0.4-0.2c-0.3,0-0.6,0.2-0.9,0.6
					C-39.9-51-40-50.6-40-50.1z"/>
				<path d="M-36-51.2c0,0,0-0.1,0.1-0.2c0-0.1,0.1-0.3,0.2-0.4c0.1-0.2,0.2-0.3,0.3-0.4c0.1-0.1,0.3-0.2,0.5-0.2
					c0.2,0,0.4,0.1,0.6,0.2c0.2,0.1,0.3,0.3,0.3,0.5c0.1-0.1,0.2-0.2,0.3-0.3c0.1-0.1,0.2-0.2,0.4-0.2c0.2-0.1,0.4-0.1,0.6-0.1
					c0.3,0,0.5,0.1,0.7,0.2c0.2,0.1,0.3,0.3,0.4,0.5c0.4-0.5,0.9-0.7,1.4-0.7c0.3,0,0.6,0.1,0.8,0.2c0.2,0.2,0.3,0.4,0.3,0.7
					c0,0.3-0.1,0.7-0.3,1.2s-0.3,0.8-0.3,0.9c0,0.1,0,0.1,0.1,0.1s0.1,0.1,0.1,0.1c0.1,0,0.3-0.1,0.4-0.2s0.2-0.3,0.3-0.5
					c0-0.1,0.1-0.2,0.1-0.2c0,0,0.1,0,0.2,0c0.1,0,0.2,0,0.2,0.1s0.1,0.1,0.1,0.2c0,0.2-0.1,0.5-0.4,0.8s-0.5,0.5-0.9,0.5
					c-0.2,0-0.4-0.1-0.6-0.2c-0.1-0.1-0.2-0.3-0.2-0.5c0-0.1,0.1-0.4,0.3-0.9c0.2-0.5,0.3-0.9,0.3-1.1c0-0.3-0.2-0.4-0.5-0.4
					c-0.2,0-0.4,0.1-0.6,0.2c-0.2,0.1-0.4,0.3-0.5,0.5c-0.1,0.2-0.2,0.4-0.4,0.7c-0.1,0.3-0.2,0.5-0.3,0.7c-0.1,0.2-0.1,0.4-0.2,0.6
					c0,0.2-0.1,0.3-0.1,0.3c-0.1,0.1-0.2,0.2-0.3,0.2c-0.1,0-0.2,0-0.2-0.1c-0.1-0.1-0.1-0.1-0.1-0.2c0,0,0.1-0.4,0.3-1.2
					c0.2-0.8,0.3-1.2,0.3-1.3c0-0.3-0.2-0.4-0.5-0.4c-0.3,0-0.6,0.1-0.9,0.4s-0.5,0.6-0.6,1c-0.1,0.3-0.2,0.7-0.3,1.1
					s-0.2,0.6-0.2,0.6c-0.1,0.1-0.2,0.2-0.3,0.2c-0.1,0-0.1,0-0.2-0.1c-0.1,0-0.1-0.1-0.1-0.2c0,0,0-0.1,0-0.2l0.6-2.3
					c0,0,0-0.1,0-0.2c0-0.1,0-0.2-0.1-0.2c-0.1,0-0.1-0.1-0.2-0.1c-0.1,0-0.2,0.1-0.3,0.2c-0.1,0.1-0.1,0.3-0.2,0.4
					c0,0.2-0.1,0.2-0.1,0.3c-0.1,0.1-0.1,0.1-0.2,0.1h0C-35.9-51-36-51.1-36-51.2z"/>
			</g>
			<g enable-background="new    ">
				<path d="M-60.1-39.1c0-0.2,0.1-0.3,0.3-0.3h0.6l1-4.1h-0.4c-0.2,0-0.3-0.1-0.3-0.2c0-0.2,0.1-0.3,0.3-0.3c0,0,0,0,0,0h4.4
					c0.2,0,0.3,0.1,0.3,0.2c0,0-0.1,0.3-0.2,0.8c0,0.2-0.1,0.2-0.3,0.2h0c-0.2,0-0.3-0.1-0.3-0.2c0-0.1,0-0.2,0.1-0.6h-3l-0.4,1.7
					h1.7c0,0,0-0.1,0-0.1s0-0.2,0.1-0.2c0-0.1,0.1-0.1,0.2-0.1c0.2,0,0.3,0.1,0.3,0.2c0,0-0.1,0.4-0.2,1c0,0,0,0.1,0,0.1
					c0,0,0,0.1-0.1,0.1s-0.1,0.1-0.2,0.1h0c-0.2,0-0.3-0.1-0.3-0.2c0,0,0-0.1,0-0.2h-1.7v0l-0.5,1.9h3.3c0.1-0.4,0.2-0.7,0.2-0.8
					c0-0.1,0.1-0.1,0.2-0.1h0c0.2,0,0.3,0.1,0.3,0.2c0,0,0,0.2-0.1,0.5c-0.1,0.3-0.1,0.5-0.2,0.6c0,0.1-0.1,0.1-0.3,0.1h-4.7
					C-60-38.8-60.1-38.9-60.1-39.1z"/>
				<path d="M-53.1-40.1c0-0.6,0.2-1.1,0.6-1.6c0.4-0.5,0.9-0.7,1.4-0.7c0.3,0,0.6,0.1,0.9,0.4l0.3-1.4h-0.6c-0.1,0-0.2,0-0.2-0.1
					c0-0.1-0.1-0.1-0.1-0.2c0-0.2,0.1-0.3,0.3-0.3c0,0,0,0,0,0h0.9c0.2,0,0.3,0.1,0.3,0.2c0,0,0,0,0,0.1s0,0.1,0,0.1l-1,3.9
					c0,0,0,0.1,0,0.1c0,0.1,0,0.1,0.1,0.2c0.1,0,0.1,0.1,0.2,0.1c0.1,0,0.1,0,0.1-0.1c0.1-0.1,0.2-0.2,0.2-0.4
					c0-0.2,0.1-0.3,0.1-0.4c0-0.1,0.1-0.1,0.3-0.1c0.2,0,0.3,0.1,0.3,0.2c0,0,0,0.1-0.1,0.2c0,0.1-0.1,0.3-0.2,0.4
					c-0.1,0.2-0.2,0.3-0.3,0.4c-0.1,0.1-0.3,0.2-0.5,0.2c-0.2,0-0.4,0-0.5-0.1c-0.1-0.1-0.3-0.2-0.3-0.4c-0.4,0.3-0.8,0.5-1.2,0.5
					c-0.3,0-0.6-0.1-0.9-0.4C-53-39.4-53.1-39.8-53.1-40.1z M-52.5-40.1c0,0.1,0,0.2,0,0.3c0,0.1,0.1,0.2,0.2,0.3
					c0.1,0.1,0.2,0.2,0.4,0.2c0.3,0,0.6-0.2,0.9-0.6c0.3-0.4,0.5-0.8,0.5-1.3c0-0.3-0.1-0.5-0.2-0.6c-0.1-0.2-0.3-0.2-0.4-0.2
					c-0.3,0-0.6,0.2-0.9,0.6C-52.3-41-52.5-40.6-52.5-40.1z"/>
				<path d="M-48.5-41.2c0-0.1,0-0.2,0.1-0.4c0.1-0.2,0.2-0.4,0.5-0.6c0.2-0.2,0.4-0.3,0.7-0.3c0.2,0,0.4,0.1,0.5,0.2
					c0.1,0.1,0.2,0.3,0.2,0.5v0c0,0.1-0.1,0.5-0.4,1.1s-0.4,1-0.4,1.1c0,0.1,0.1,0.2,0.2,0.2c0.1,0,0.2-0.1,0.3-0.2s0.2-0.3,0.3-0.5
					c0,0,0-0.1,0-0.1c0-0.1,0-0.1,0-0.1c0,0,0-0.1,0.1-0.1c0,0,0.1,0,0.2,0h0c0.2,0,0.3,0.1,0.3,0.2c0,0.2-0.1,0.5-0.4,0.8
					c-0.3,0.3-0.6,0.5-1,0.5c-0.2,0-0.4-0.1-0.6-0.2c-0.1-0.1-0.2-0.3-0.2-0.5v0c0-0.1,0.1-0.5,0.4-1.1c0.3-0.7,0.4-1,0.4-1.1
					c0-0.1-0.1-0.2-0.2-0.2s-0.3,0.1-0.4,0.2c-0.1,0.1-0.2,0.2-0.2,0.4c0,0.1-0.1,0.2-0.1,0.3S-48-41-48.1-41h0
					C-48.4-41-48.5-41.1-48.5-41.2z M-46.9-43.6c0-0.1,0-0.2,0.1-0.3c0.1-0.1,0.2-0.1,0.3-0.1c0.1,0,0.2,0,0.2,0.1
					c0.1,0.1,0.1,0.1,0.1,0.2c0,0.1,0,0.2-0.1,0.3c-0.1,0.1-0.2,0.1-0.3,0.1c-0.1,0-0.2,0-0.2-0.1C-46.8-43.4-46.9-43.5-46.9-43.6z"
					/>
				<path d="M-45.1-42.2c0-0.2,0.1-0.3,0.3-0.3h0.8c0-0.2,0.1-0.4,0.2-0.6c0.1-0.4,0.2-0.7,0.2-0.8c0.1-0.1,0.1-0.2,0.3-0.2
					c0.1,0,0.1,0,0.2,0.1c0.1,0,0.1,0.1,0.1,0.2c0,0,0,0.1,0,0.2c0,0.1-0.1,0.3-0.1,0.5s-0.1,0.4-0.1,0.6h0.7c0.2,0,0.3,0.1,0.3,0.2
					c0,0.2-0.1,0.3-0.3,0.3c0,0,0,0,0,0h-0.8c0,0.1-0.1,0.3-0.2,0.7s-0.2,0.8-0.3,1.1s-0.1,0.5-0.1,0.6c0,0.1,0,0.1,0.1,0.2
					c0.1,0.1,0.1,0.1,0.2,0.1c0.2,0,0.3-0.1,0.5-0.2c0.2-0.1,0.3-0.3,0.4-0.5c0-0.1,0.1-0.1,0.1-0.2s0.1,0,0.2,0h0
					c0.2,0,0.3,0.1,0.3,0.2c0,0.2-0.2,0.4-0.5,0.8c-0.3,0.3-0.7,0.5-1.1,0.5c-0.2,0-0.4-0.1-0.6-0.2c-0.2-0.1-0.3-0.3-0.3-0.6
					c0-0.1,0-0.2,0-0.3l0.5-2.1h-0.7C-45-41.9-45.1-42-45.1-42.2z"/>
				<path d="M-41.3-40.2c0-0.6,0.2-1.1,0.7-1.6c0.5-0.5,1-0.7,1.5-0.7c0.4,0,0.8,0.1,1,0.4s0.4,0.6,0.4,1c0,0.6-0.2,1.1-0.7,1.6
					s-1,0.7-1.5,0.7c-0.4,0-0.8-0.1-1-0.4S-41.3-39.8-41.3-40.2z M-40.8-40.2c0,0.3,0.1,0.5,0.2,0.7c0.2,0.2,0.4,0.3,0.6,0.3
					c0.4,0,0.8-0.2,1.1-0.6c0.3-0.4,0.5-0.8,0.5-1.2c0-0.3-0.1-0.5-0.2-0.7s-0.4-0.2-0.6-0.2c-0.4,0-0.8,0.2-1.1,0.6
					S-40.8-40.7-40.8-40.2z"/>
				<path d="M-36.7-41.2c0,0,0-0.1,0.1-0.2c0-0.1,0.1-0.3,0.2-0.4s0.2-0.3,0.3-0.4c0.2-0.1,0.3-0.2,0.5-0.2c0.4,0,0.7,0.2,0.8,0.5
					c0.3-0.3,0.7-0.5,1.1-0.5c0.3,0,0.5,0.1,0.7,0.2c0.2,0.2,0.3,0.4,0.3,0.6c0,0.2,0,0.3-0.1,0.4c-0.1,0.1-0.2,0.1-0.3,0.1
					c-0.1,0-0.2,0-0.2-0.1c-0.1-0.1-0.1-0.1-0.1-0.2c0-0.1,0.1-0.2,0.2-0.3c-0.1-0.1-0.2-0.2-0.4-0.2c-0.3,0-0.5,0.2-0.8,0.5
					c-0.2,0.3-0.4,0.6-0.5,1c-0.1,0.4-0.2,0.7-0.3,1.1c-0.1,0.3-0.2,0.5-0.2,0.6c-0.1,0.1-0.2,0.1-0.3,0.1c-0.1,0-0.2,0-0.2-0.1
					C-36-38.9-36-39-36-39c0,0,0-0.1,0-0.2l0.6-2.2c0.1-0.1,0.1-0.2,0.1-0.2c0-0.1,0-0.2-0.1-0.2c-0.1,0-0.1-0.1-0.2-0.1
					c-0.2,0-0.4,0.2-0.5,0.7c0,0,0,0,0,0c0,0,0,0.1,0,0.1c0,0,0,0,0,0.1c0,0,0,0.1,0,0.1c0,0,0,0-0.1,0c0,0-0.1,0-0.1,0h0
					C-36.6-41-36.7-41.1-36.7-41.2z"/>
			</g>
		</g>
	</g>
</g>
</svg>
